<svg width="1379" height="686" viewBox="0 0 1379 686" fill="none" xmlns="http://www.w3.org/2000/svg">
<g clip-path="url(#clip0_41_804)">
<path d="M424.619 629.556C432.112 621.233 437.517 611.252 440.389 600.434C446.403 580.418 451.515 559.835 457.863 539.786C461.954 527.129 466.807 514.73 472.396 502.657C476.624 493.061 483.466 484.843 492.142 478.939C494.074 477.513 496.172 476.325 498.39 475.403C515.997 469.198 533.772 463.761 552.683 463.06C563.654 462.833 574.556 464.842 584.724 468.965C616.464 481.107 646.2 497.187 675.668 514C701.16 528.511 726.62 543.156 752.713 556.499C787.593 574.585 825.39 586.397 864.373 591.393C877.875 592.911 891.446 593.746 905.034 593.895C912.515 594.132 919.955 592.708 926.817 589.725C967.078 571.845 1007 553.23 1043.76 528.611C1056.62 520.004 1069.38 511.298 1082.24 502.691C1084.4 501.118 1086.74 499.828 1089.23 498.855C1093.64 497.287 1096.14 499.655 1094.91 504.092C1093.98 507.161 1092.79 510.142 1091.33 512.999C1076.4 543.689 1061.03 574.18 1042.08 602.669C1030.06 620.716 1016.63 637.529 999.018 650.639C975.173 667.97 947.28 678.915 917.997 682.431C868.749 689.369 822.642 677.527 777.671 658.779C736.409 641.532 698.254 618.548 660.733 594.629C635.308 578.483 610.049 561.937 582.652 549.127C574.141 545.345 565.377 542.157 556.425 539.586C551.768 538.441 546.987 537.881 542.192 537.918C537.903 537.756 533.637 538.608 529.741 540.405C525.845 542.203 522.429 544.894 519.773 548.26C514.847 554.243 511.147 561.134 508.881 568.542C502.533 586.623 496.619 604.904 489.67 622.784C485.162 634.177 479.893 645.255 473.9 655.943C470.312 662.463 465.812 668.439 460.535 673.69C448.474 685.533 433.974 689.636 418.003 682.697C408.99 678.718 400.376 673.893 392.277 668.286C366.361 649.911 342.383 628.954 320.711 605.738C297.524 581.786 274.203 557.956 250.749 534.249C244.568 528.011 237.718 522.44 230.936 516.835C228.42 515.029 225.666 513.58 222.75 512.532C220.44 511.48 218.431 509.866 216.907 507.838C215.383 505.81 214.394 503.432 214.03 500.923C213.228 497.587 215.834 496.086 218.607 495.519C227.561 493.717 236.716 492.616 245.336 496.92C254.692 501.443 263.743 506.569 272.432 512.265C293.615 526.743 312.525 544.123 331.436 561.37C354.322 582.186 377.309 602.902 403.603 619.515C409.921 624.139 417.049 627.545 424.619 629.556V629.556Z" fill="black"/>
<path d="M72.936 356.577C80.2267 362.992 88.4791 368.226 97.3928 372.089C126.808 384.167 157.786 392.028 189.406 395.441C205.548 397.418 221.79 398.464 238.053 398.577C253.785 398.714 269.501 397.509 285.028 394.974C308.436 391.177 329.957 379.836 346.304 362.682C355.258 353.341 360.771 342.433 359.668 328.789C359.677 326.944 359.239 325.124 358.389 323.486C357.539 321.847 356.304 320.439 354.79 319.382C349.572 315.706 344.126 312.364 338.486 309.374C320.945 300.567 301.968 296.03 282.89 292.06C257.331 286.69 231.671 281.852 206.045 276.048C166.091 267.026 128.775 248.882 97.0253 223.04C74.445 204.926 56.6912 181.528 45.3387 154.92C30.7381 121.194 38.6565 90.07 67.323 66.9854C80.3432 56.7981 95.0408 48.9526 110.757 43.8007C132.594 35.8785 155.331 30.6904 178.448 28.3554C202.47 26.3205 226.492 26.1203 249.345 35.561C256.628 38.3138 263.64 41.7309 270.294 45.7689C293.682 60.9474 301.4 80.2624 294.985 107.617C292.629 116.889 289.174 125.848 284.694 134.304C279.114 145.18 272.332 155.454 265.917 165.896C264.547 168.131 262.576 169.999 260.939 172.134C259.33 174.303 257.061 175.894 254.472 176.669C251.883 177.445 249.111 177.363 246.572 176.437C241.494 174.936 239.89 170.199 238.721 164.862C244.802 162.56 246.706 157.256 248.944 152.185C254.257 140.276 259.97 128.5 264.815 116.357C267.16 110.149 268.774 103.689 269.626 97.1088C270.895 88.2686 266.853 81.7969 259.035 77.4602C247.534 71.1933 234.887 67.302 221.848 66.018C185.998 62.4486 151.719 68.8202 118.676 82.4641C103.472 88.5526 89.788 97.8892 78.5825 109.819C75.9505 112.466 74.069 115.762 73.1299 119.372C72.1907 122.983 72.2276 126.777 73.2367 130.368C77.4937 147.008 86.1611 162.196 98.3283 174.336C120.426 197.699 148.216 214.94 178.982 224.374C204.049 231.811 229.666 237.255 255.593 240.654C281.153 244.557 306.946 247.326 331.737 255.132C348.969 260.106 365.243 267.932 379.882 278.283C398.091 291.627 408.715 309.24 408.548 332.592C408.589 342.187 407.353 351.744 404.873 361.014C400.304 379.441 392.054 396.756 380.617 411.92C366.15 430.301 346.504 441.51 325.255 450.15C302.377 459.13 278.316 464.748 253.822 466.83C209.217 471.223 164.185 467.757 120.78 456.588C99.7984 451.251 79.2173 444.446 60.8413 432.67C50.6193 425.881 40.7503 418.577 31.2727 410.786C27.819 407.847 24.8828 404.352 22.5859 400.445C16.6387 390.67 10.6582 380.829 5.61314 370.421C-0.0667088 359.346 -2.57252 347.537 3.84236 335.327C8.27447 326.991 15.6604 320.603 24.5571 317.413C36.3877 312.576 48.8362 309.41 61.5429 308.006C65.4593 308.131 69.3201 308.967 72.936 310.475C74.9076 311.2 76.8276 312.058 78.6827 313.043C80.0182 313.49 81.2473 314.206 82.2934 315.147C83.3395 316.089 84.1803 317.235 84.7633 318.515C85.3463 319.795 85.659 321.181 85.6821 322.587C85.7051 323.993 85.4379 325.389 84.8971 326.687C82.8256 333.359 80.2864 339.731 77.7806 346.169C76.3439 349.605 74.64 352.874 72.936 356.577Z" fill="black"/>
<path d="M1122.44 259.268C1124.41 263.838 1125.51 266.774 1126.92 269.576C1144.61 305.54 1173.41 334.871 1209.07 353.241C1227.98 362.688 1248.56 368.354 1269.65 369.921C1286.08 371.355 1302.69 370.955 1319.19 371.422L1375.19 373.19C1376.2 373.343 1377.18 373.6 1378.13 373.957C1380.17 377.293 1378.37 379.729 1376.33 381.897C1364.27 394.774 1351.94 407.35 1337.04 416.991C1325.57 424.429 1312.36 428.753 1298.71 429.534C1248.39 433.318 1198.44 418.462 1158.39 387.801C1139.48 373.691 1121.24 358.779 1107.64 339.431C1085.92 308.54 1067.24 276.048 1059.59 238.319C1053.28 207.261 1055.65 177.405 1070.48 148.916C1077.05 136.068 1086.17 124.69 1097.29 115.474C1108.4 106.258 1121.28 99.3965 1135.13 95.3074C1153.55 89.0682 1172.6 84.8511 1191.93 82.731C1209.01 81.0231 1226.24 83.6151 1242.05 90.2702C1249.94 93.531 1257.65 97.217 1265.14 101.312C1275.9 106.839 1285.01 115.098 1291.56 125.258C1298.12 135.418 1301.87 147.121 1302.46 159.19C1304.23 182.108 1298.75 203.625 1289.29 224.274C1285.27 234.162 1279.82 243.411 1273.12 251.729C1258.96 267.646 1239.49 277.887 1218.33 280.551C1192.02 284.582 1165.11 280.715 1141.01 269.443C1135.23 266.841 1129.79 263.405 1122.44 259.268ZM1113.52 229.912C1116.54 230.433 1119.53 231.123 1122.47 231.98C1139.65 237.913 1157.75 240.738 1175.93 240.32C1190.7 240.77 1205.23 236.454 1217.36 228.011C1236 214.667 1247.43 197.654 1246.53 173.602C1246.67 171.519 1246.13 169.446 1244.98 167.699C1243.83 165.953 1242.15 164.628 1240.18 163.927C1227.15 157.733 1212.97 154.324 1198.55 153.92C1168.48 153.519 1142.52 162.426 1121.7 184.877C1118.37 188.128 1115.77 192.055 1114.09 196.395C1112.4 200.734 1111.67 205.384 1111.95 210.03C1112.38 216.735 1113.08 223.34 1113.52 230.012V229.912Z" fill="black"/>
<path d="M849.137 206.961C852.311 196.953 855.251 186.945 858.692 176.938C864.239 161.025 870.921 145.647 882.08 132.703C887.202 126.465 894.253 122.1 902.127 120.294C909.677 118.626 917.061 116.19 924.679 115.156C930.158 114.186 935.785 114.448 941.15 115.923C956.753 121.194 970.619 129.267 980.575 143.178C991.21 158.194 1000.24 174.283 1007.5 191.182C1026.15 233.748 1039.98 277.916 1053.58 322.317C1059.12 340.398 1064.14 358.645 1069.58 376.76C1073.22 389.38 1073.07 402.787 1069.15 415.323C1068.53 417.063 1067.7 418.72 1066.67 420.26C1066.04 421.394 1064.4 422.562 1064.57 423.596C1066.07 431.802 1059.46 437.173 1057.52 444.212C1056.8 446.947 1055.43 449.466 1053.51 451.548C1051.6 453.63 1049.2 455.211 1046.53 456.155C1045.07 456.802 1043.45 457.005 1041.87 456.738C1040.3 456.471 1038.84 455.746 1037.67 454.653C1034.33 451.918 1030.59 449.95 1027.45 447.114C1024.51 444.458 1021.92 441.443 1019.73 438.141C1016.66 433.504 1014.32 428.333 1011.25 423.663C1001.76 409.285 998.383 392.805 994.541 376.459C983.048 326.887 971.487 277.349 955.718 228.911C950.773 213.733 944.291 199.088 938.645 184.143C932.53 167.964 916.593 167.73 906.303 177.004C896.606 186.195 888.679 197.083 882.915 209.129C877.169 220.271 872.892 232.481 866.21 242.789C861.098 250.795 862.434 257.4 864.974 265.139C876.534 300.6 887.726 336.195 903.095 370.288C907.091 379.579 911.701 388.595 916.894 397.275C920.881 403.657 922.323 411.3 920.937 418.692C919.815 423.542 918.307 428.294 916.426 432.903C914.656 438.074 913.085 443.278 910.98 448.382C910.061 450.877 908.765 453.216 907.138 455.321C902.527 461.159 898.518 460.858 892.204 456.889C874.262 445.513 867.546 426.532 859.728 408.784C848.402 383.098 842.087 355.71 836.341 328.355C830.16 299.433 824.346 270.444 819.301 241.321C815.091 216.935 811.249 192.416 811.55 167.497C811.55 165.362 811.55 163.227 811.55 161.125C812.285 152.719 818.232 148.115 826.251 149.683C828.114 149.937 829.855 150.753 831.241 152.024C832.626 153.294 833.59 154.956 834.002 156.789C837.343 169.132 840.684 181.441 844.025 193.784L847.767 207.128L849.137 206.961Z" fill="black"/>
<path d="M463.743 216.802C473.599 207.862 482.82 199.055 492.51 190.848C508.948 176.837 527.157 165.862 548.707 161.759C557.796 159.719 567.088 158.712 576.404 158.757C589.568 159.324 600.828 165.929 610.717 174.302C620.29 182.92 627.686 193.677 632.301 205.693C642.256 230.432 649.276 256.25 653.216 282.62C658.795 315.145 663.774 347.804 668.819 380.429C671.29 392.764 669.962 405.557 665.01 417.124C662.337 422.829 660.633 429 658.027 434.771C656.649 437.923 654.688 440.786 652.247 443.211C648.538 446.747 645.331 445.713 640.787 443.445C629.628 437.841 625.652 426.765 619.471 417.325C612.956 407.317 611.218 396.275 610.483 384.632C607.944 343.467 605.405 302.268 598.255 261.57C595.749 247.192 591.272 233.181 587.396 219.07C584.891 209.83 577.707 206.16 568.853 205.26C557.629 204.135 546.312 206.12 536.144 210.997C515.73 220.336 496.913 232.82 480.381 247.993C478.166 249.624 476.56 251.949 475.822 254.597C475.083 257.245 475.253 260.064 476.305 262.604C486.128 294.696 495.45 326.921 504.805 359.146C507.043 366.819 508.547 374.691 510.785 382.497C514.928 396.675 510.952 409.719 505.607 422.529C504.278 425.99 502.669 429.337 500.795 432.536C496.953 438.608 492.81 439.208 486.963 434.838C480.322 429.907 474.763 423.668 470.631 416.507C466.499 409.347 463.882 401.416 462.941 393.206C457.963 358.612 450.312 324.586 442.894 290.493C433.172 244.89 423.917 199.222 417.335 153.052C413.816 128.589 410.82 104.025 408.348 79.3617C407.922 70.5961 408.279 61.8101 409.417 53.108C409.784 48.471 412.123 46.6029 415.932 46.4361C420.309 46.4361 421.077 49.772 421.645 52.8411C431.501 105.816 447.539 156.822 461.103 208.596C461.838 211.331 462.841 214.033 463.743 216.802Z" fill="black"/>
<path d="M692.106 173.635C692.106 168.031 691.705 162.426 692.106 156.955C692.741 149.983 695.247 148.215 704.134 146.948C706.636 146.549 709.2 147.021 711.395 148.285C713.591 149.548 715.285 151.525 716.195 153.886C718.538 160.675 720.534 167.578 722.176 174.569C732.783 220.213 746.582 265.057 763.472 308.773C767.381 318.781 771.891 328.322 775.8 338.23C777.931 343.813 778.874 349.779 778.57 355.746C778.265 361.713 776.719 367.552 774.03 372.89C771.424 378.594 769.686 384.666 767.347 390.437C766.306 393.173 764.84 395.728 763.004 398.009C758.794 402.88 754.518 402.68 749.205 399.01C730.93 386.367 722.911 367.352 717.766 347.137C707.771 307.047 700.316 266.368 695.447 225.342C693.342 208.195 692.54 190.915 691.137 173.702L692.106 173.635Z" fill="black"/>
<path d="M726.319 86.0002C721.188 84.0815 716.207 81.7845 711.418 79.1282C700.505 72.2968 691.749 62.525 686.159 50.9396C681.214 39.7642 676.136 28.5889 671.224 17.5803C670.438 15.8853 669.811 14.1208 669.353 12.3096C667.75 5.6377 669.353 3.2692 676.035 1.56787C683.854 -0.433683 691.471 -0.500402 697.953 4.9038C705.762 11.2848 713.244 18.0541 720.372 25.1862C727.321 32.4919 728.691 42.433 729.359 51.8737C729.687 60.6302 729.464 69.3988 728.691 78.1274C728.18 80.8278 727.385 83.4667 726.319 86.0002V86.0002Z" fill="black"/>
</g>
<defs>
<clipPath id="clip0_41_804">
<rect width="1379" height="686" fill="white"/>
</clipPath>
</defs>
</svg>
